<svg width="67" height="67" viewBox="0 0 67 67" fill="none" xmlns="http://www.w3.org/2000/svg">
<path fill-rule="evenodd" clip-rule="evenodd" d="M16.7503 33.5001C16.7503 34.0554 16.9709 34.5879 17.3636 34.9806C17.7562 35.3732 18.2888 35.5938 18.8441 35.5938H43.1023L34.1117 44.5802C33.9171 44.7749 33.7626 45.006 33.6573 45.2603C33.5519 45.5147 33.4977 45.7873 33.4977 46.0626C33.4977 46.3379 33.5519 46.6105 33.6573 46.8648C33.7626 47.1192 33.9171 47.3503 34.1117 47.545C34.3064 47.7396 34.5375 47.894 34.7918 47.9994C35.0462 48.1048 35.3188 48.159 35.5941 48.159C35.8694 48.159 36.142 48.1048 36.3964 47.9994C36.6507 47.894 36.8818 47.7396 37.0765 47.545L49.639 34.9825C49.834 34.788 49.9887 34.5569 50.0942 34.3025C50.1998 34.0482 50.2541 33.7755 50.2541 33.5001C50.2541 33.2247 50.1998 32.952 50.0942 32.6976C49.9887 32.4432 49.834 32.2122 49.639 32.0177L37.0765 19.4552C36.6833 19.0621 36.1501 18.8412 35.5941 18.8412C35.0381 18.8412 34.5049 19.0621 34.1117 19.4552C33.7186 19.8484 33.4977 20.3816 33.4977 20.9376C33.4977 21.4936 33.7186 22.0268 34.1117 22.42L43.1023 31.4063H18.8441C18.2888 31.4063 17.7562 31.6269 17.3636 32.0196C16.9709 32.4122 16.7503 32.9448 16.7503 33.5001Z" fill="white"/>
</svg>
