<svg width="67" height="67" viewBox="0 0 67 67" fill="none" xmlns="http://www.w3.org/2000/svg">
<path fill-rule="evenodd" clip-rule="evenodd" d="M50.2497 33.5001C50.2497 34.0554 50.0291 34.5879 49.6364 34.9806C49.2438 35.3732 48.7112 35.5938 48.1559 35.5938H23.8977L32.8883 44.5802C33.0829 44.7749 33.2374 45.006 33.3427 45.2603C33.4481 45.5147 33.5023 45.7873 33.5023 46.0626C33.5023 46.3379 33.4481 46.6105 33.3427 46.8648C33.2374 47.1192 33.0829 47.3503 32.8883 47.545C32.6936 47.7396 32.4625 47.894 32.2082 47.9994C31.9538 48.1048 31.6812 48.159 31.4059 48.159C31.1306 48.159 30.858 48.1048 30.6036 47.9994C30.3493 47.894 30.1182 47.7396 29.9235 47.545L17.361 34.9825C17.166 34.788 17.0113 34.5569 16.9058 34.3025C16.8002 34.0482 16.7459 33.7755 16.7459 33.5001C16.7459 33.2247 16.8002 32.952 16.9058 32.6976C17.0113 32.4432 17.166 32.2122 17.361 32.0177L29.9235 19.4552C30.3167 19.0621 30.8499 18.8412 31.4059 18.8412C31.9619 18.8412 32.4951 19.0621 32.8883 19.4552C33.2814 19.8484 33.5023 20.3816 33.5023 20.9376C33.5023 21.4936 33.2814 22.0268 32.8883 22.42L23.8977 31.4063H48.1559C48.7112 31.4063 49.2438 31.6269 49.6364 32.0196C50.0291 32.4122 50.2497 32.9448 50.2497 33.5001Z" fill="black" fill-opacity="0.3"/>
</svg>
